<?xml version="1.0" encoding="utf-8"?>
<!-- Generator: Adobe Illustrator 21.1.0, SVG Export Plug-In . SVG Version: 6.00 Build 0)  -->
<svg version="1.1" id="Layer_1" xmlns="http://www.w3.org/2000/svg" xmlns:xlink="http://www.w3.org/1999/xlink" x="0px" y="0px"
	 viewBox="0 0 136.2 157.2" style="enable-background:new 0 0 136.2 157.2;" xml:space="preserve">
<style type="text/css">
	.st0{fill:#36A2EB;}
	.st1{fill:#FFCE56;}
	.st2{fill:#FE6184;fill-opacity:0.8;}
	.st3{fill:#E7E9ED;}
</style>
<title>Artboard 6</title>
<g>
	<path class="st0" d="M132.2,79.2c-22,0.4-17.4,14.3-32.9,17.9c-15.7,3.6-18.2-38.4-34-38.4c-15.7,0-19.2,40.8-38.9,68.8l-0.6,0.8
		l42.2,24.4l64.1-37V79.2z"/>
	<path class="st1" d="M132.2,77.9c-7.4-9.4-12.4-20.3-23.1-20.3c-19,0-14,31-35,31s-23.2-33.3-47-2c-7.6,10-13.7,21.1-18.5,31.7
		l59.5,34.3l64.1-37V77.9z"/>
	<path class="st2" d="M4,90.8c7.2-20,10.3-36.1,24.1-36.1c21,0,26,59,44,53s16-38,44-38c5.3,0,10.8,3.3,16.1,8.5v37.5l-64.1,37
		L4,115.6C4,115.6,4,90.8,4,90.8z"/>
	<path class="st3" d="M68.1,157.2L0,117.9V39.3L68.1,0l68.1,39.3v78.6L68.1,157.2z M8,113.3L68.1,148l60.1-34.7V43.9L68.1,9.2
		L8,43.9V113.3z"/>
</g>
</svg>
